<?xml version="1.0" encoding="UTF-8" standalone="no"?>
<!-- Created with Inkscape (http://www.inkscape.org/) -->

<svg
   xmlns:dc="http://purl.org/dc/elements/1.1/"
   xmlns:cc="http://creativecommons.org/ns#"
   xmlns:rdf="http://www.w3.org/1999/02/22-rdf-syntax-ns#"
   xmlns:svg="http://www.w3.org/2000/svg"
   xmlns="http://www.w3.org/2000/svg"
   xmlns:sodipodi="http://sodipodi.sourceforge.net/DTD/sodipodi-0.dtd"
   xmlns:inkscape="http://www.inkscape.org/namespaces/inkscape"
   width="25mm"
   height="25mm"
   viewBox="0 0 25 25"
   version="1.1"
   id="svg38"
   inkscape:version="0.92.2pre0 (973e216, 2017-07-25)"
   sodipodi:docname="thplayer.svg">
  <defs
     id="defs32" />
  <sodipodi:namedview
     id="base"
     pagecolor="#ffffff"
     bordercolor="#666666"
     borderopacity="1.0"
     inkscape:pageopacity="0.0"
     inkscape:pageshadow="2"
     inkscape:zoom="3.959798"
     inkscape:cx="151.77047"
     inkscape:cy="23.5763"
     inkscape:document-units="mm"
     inkscape:current-layer="layer1"
     showgrid="false"
     inkscape:pagecheckerboard="true"
     inkscape:window-width="1920"
     inkscape:window-height="1000"
     inkscape:window-x="0"
     inkscape:window-y="0"
     inkscape:window-maximized="1" />
  <metadata
     id="metadata35">
    <rdf:RDF>
      <cc:Work
         rdf:about="">
        <dc:format>image/svg+xml</dc:format>
        <dc:type
           rdf:resource="http://purl.org/dc/dcmitype/StillImage" />
        <dc:title></dc:title>
      </cc:Work>
    </rdf:RDF>
  </metadata>
  <g
     inkscape:label="Layer 1"
     inkscape:groupmode="layer"
     id="layer1"
     transform="translate(0,-272)">
    <rect
       id="rect60"
       width="25"
       height="25"
       x="2e-08"
       y="272"
       style="stroke-width:0.26458332;fill:#ffffff" />
    <g
       id="g3763"
       transform="matrix(0.26041667,0,0,0.26041667,-4.1666667,267.83334)">
      <path
         style="fill:#dedeee"
         d="M 16,64 V 16 h 48 48 v 48 48 H 64 16 Z m 80,36 v -4 h 4 4 V 64 32 h -4 -4 V 28 24 H 64 32 v 4 4 h -4 -4 v 32 32 h 4 4 v 4 4 H 64 96 Z M 32,64 V 32 H 64 96 V 64 96 H 64 32 Z M 48,76 V 72 H 60 72 V 68 64 H 60 48 V 56 48 H 60 72 V 44 40 H 60 48 v 4 4 h -4 -4 v 16 16 h 4 4 z"
         id="path3777"
         inkscape:connector-curvature="0" />
      <path
         style="fill:#a7a8e6"
         d="M 16,64 V 16 h 48 48 v 48 48 H 64 16 Z m 80,36 v -4 h 4 4 V 64 32 h -4 -4 V 28 24 H 64 32 v 4 4 h -4 -4 v 32 32 h 4 4 v 4 4 H 64 96 Z M 32,64 V 32 H 64 96 V 64 96 H 64 32 Z m 16,16 v -8 h 12 12 v -4 -4 h 4 4 V 56 48 H 76 72 V 44 40 H 60 48 v 4 4 h -4 -4 v 20 20 h 4 4 z m 0,-24 v -8 h 12 12 v 8 8 H 60 48 Z"
         id="path3775"
         inkscape:connector-curvature="0" />
      <path
         style="fill:#9b9de5"
         d="m 24,108 v -4 H 20 16 V 64 24 h 4 4 v -4 -4 h 40 40 v 4 4 h 4 4 v 40 40 h -4 -4 v 4 4 H 64 24 Z m 72,-8 v -4 h 4 4 V 64 32 h -4 -4 V 28 24 H 64 32 v 4 4 h -4 -4 v 32 32 h 4 4 v 4 4 H 64 96 Z M 32,64 V 32 H 64 96 V 64 96 H 64 32 Z M 48,80 V 72 H 64 80 V 56 40 H 60 40 v 24 24 h 4 4 z m 0,-24 v -8 h 12 12 v 8 8 H 60 48 Z"
         id="path3773"
         inkscape:connector-curvature="0" />
      <path
         style="fill:#5e61c6"
         d="m 24,108 v -4 H 20 16 V 64 24 h 4 4 v -4 -4 h 40 40 v 4 4 h 4 4 v 40 40 h -4 -4 v 4 4 H 64 24 Z M 104,64 V 24 H 64 24 v 40 40 h 40 40 z M 32,64 V 32 H 64 96 V 64 96 H 64 32 Z M 48,80 V 72 H 64 80 V 56 40 H 60 40 v 24 24 h 4 4 z m 0,-24 v -8 h 12 12 v 8 8 H 60 48 Z"
         id="path3771"
         inkscape:connector-curvature="0" />
      <path
         style="fill:#3135c7"
         d="m 24,108 v -4 H 20 16 V 64 24 h 4 4 v -4 -4 h 40 40 v 4 4 h 4 4 v 40 40 h -4 -4 v 4 4 H 64 24 Z M 104,64 V 24 H 64 24 v 40 40 h 40 40 z M 32,64 V 32 H 64 96 V 64 96 H 64 32 Z m 16,16 v -8 h 16 16 v -4 -4 h 4 4 V 56 48 H 84 80 V 44 40 H 60 40 v 24 24 h 4 4 z m 0,-24 v -8 h 12 12 v 8 8 H 60 48 Z"
         id="path3769"
         inkscape:connector-curvature="0" />
      <path
         style="fill:#3e41a8"
         d="M 32,64 V 32 H 64 96 V 64 96 H 64 32 Z m 16,16 v -8 h 16 16 v -4 -4 h 4 4 V 56 48 H 84 80 V 44 40 H 60 40 v 24 24 h 4 4 z m 0,-24 v -8 h 12 12 v 8 8 H 60 48 Z"
         id="path3767"
         inkscape:connector-curvature="0" />
      <path
         style="fill:#252891"
         d="M 32,64 V 32 H 64 96 V 64 96 H 64 32 Z m 24,16 v -8 h 12 12 v -4 -4 h 4 4 V 56 48 H 84 80 V 44 40 H 60 40 v 24 24 h 8 8 z m 0,-24 v -8 h 8 8 v 8 8 h -8 -8 z"
         id="path3765"
         inkscape:connector-curvature="0" />
    </g>
  </g>
</svg>
